{"title":"David.Letterman.2015.05.15.Oprah.Winfrey.720p.HDTV.x265.mkv","uid":11929718,"size":887144213,"categoryP":"video","categoryS":"hd___tv_shows","magnet":"?xt=urn:btih:825b70fe2d265ab811c37d5192ab435017c52f35&amp;dn=David.Letterman.2015.05.15.Oprah.Winfrey.720p.HDTV.x265.mkv&amp;tr=udp%3A%2F%2Ftracker.openbittorrent.com%3A80&amp;tr=udp%3A%2F%2Fopen.demonii.com%3A1337&amp;tr=udp%3A%2F%2Ftracker.coppersurfer.tk%3A6969&amp;tr=udp%3A%2F%2Fexodus.desync.com%3A6969","seeders":1,"leechers":0,"uploader":null,"files":1,"time":1431770650,"description":"This is x265 NOT x264\nWorks great with the newer versions of VLC and potplayer\nOr your own media player with updated codecs\n\n----------------------\n - By Request -\n\nThe Late Show with David Letterman 2015.05.15 720p x265 mkv\n\nWith Oprah and Norm Macdonald\n\nVideo\n\nFormat                                   : HEVC\nFormat/Info                              : High Efficiency Video Coding\nFormat profile                           : &lt;a class=&quot;__cf_email__&quot; href=&quot;/cdn-cgi/l/email-protection&quot; data-cfemail=&quot;87cae6eee9c7cbb4a9b6&quot;&gt;[email&amp;#160;protected]&lt;/a&gt;&lt;script data-cfhash='f9e31' type=&quot;text/javascript&quot;&gt;\n/* &lt;![CDATA[ */!function(){try{var t=&quot;currentScript&quot;in document?document.currentScript:function(){for(var t=document.getElementsByTagName(&quot;script&quot;),e=t.length;e--;)if(t[e].getAttribute(&quot;data-cfhash&quot;))return t[e]}();if(t&amp;&amp;t.previousSibling){var e,r,n,i,c=t.previousSibling,a=c.getAttribute(&quot;data-cfemail&quot;);if(a){for(e=&quot;&quot;,r=parseInt(a.substr(0,2),16),n=2;a.length-n;n+=2)i=parseInt(a.substr(n,2),16)^r,e+=String.fromCharCode(i);e=document.createTextNode(e),c.parentNode.replaceChild(e,c)}t.parentNode.removeChild(t);}}catch(u){}}()/* ]]&gt; */&lt;/script&gt;\nCodec ID                                 : V_MPEGH/ISO/HEVC\nDuration                                 : 43mn 8s\nBit rate                                 : 2 303 Kbps\nWidth                                    : 1 280 pixels\nHeight                                   : 720 pixels\nDisplay aspect ratio                     : 16:9\nFrame rate mode                          : Constant\nFrame rate                               : 29.970 fps\nColor space                              : YUV\nChroma subsampling                       : 4:2:0\nBit depth                                : 8 bits\nBits/(Pixel*Frame)                       : 0.083\nStream size                              : 711 MiB (84%)\nWriting library                          : x265 1.6+332\nEncoding settings                        : x265 preset - slow CRF 20\n\nAudio\n\nFormat                                   : AC-3\nBit rate mode                            : Constant\nBit rate                                 : 384 Kbps\nChannel(s)                               : 6 channels\nChannel positions                        : Front: L C R, Side: L R, LFE\nSampling rate                            : 48.0 KHz\nBit depth                                : 16 bits\nCompression mode                         : Lossy\nStream size                              : 118 MiB (14%)\nLanguage                                 : English","torrent":{"xt":"urn:btih:825b70fe2d265ab811c37d5192ab435017c52f35","amp;dn":"David.Letterman.2015.05.15.Oprah.Winfrey.720p.HDTV.x265.mkv","amp;tr":["udp%3A%2F%2Ftracker.openbittorrent.com%3A80","udp%3A%2F%2Fopen.demonii.com%3A1337","udp%3A%2F%2Ftracker.coppersurfer.tk%3A6969","udp%3A%2F%2Fexodus.desync.com%3A6969"],"infoHash":"825b70fe2d265ab811c37d5192ab435017c52f35","infoHashBuffer":{"type":"Buffer","data":[130,91,112,254,45,38,90,184,17,195,125,81,146,171,67,80,23,197,47,53]},"announce":[],"urlList":[]}}